<?xml version="1.0" standalone="no"?>
<!DOCTYPE svg PUBLIC "-//W3C//DTD SVG 20010904//EN"
 "http://www.w3.org/TR/2001/REC-SVG-20010904/DTD/svg10.dtd">
<svg version="1.0" xmlns="http://www.w3.org/2000/svg"
 width="512.000000pt" height="512.000000pt" viewBox="0 0 512.000000 512.000000"
 preserveAspectRatio="xMidYMid meet">

<g transform="translate(0.000000,512.000000) scale(0.100000,-0.100000)"
fill="#000000" stroke="none">
<path d="M2170 5099 c-547 -82 -1029 -327 -1426 -723 -399 -400 -643 -882
-724 -1433 -28 -196 -28 -550 0 -746 81 -551 325 -1033 724 -1433 401 -400
875 -639 1438 -725 172 -27 513 -32 668 -10 585 80 1070 312 1479 706 419 403
678 926 762 1535 22 155 17 496 -10 668 -86 563 -325 1037 -725 1438 -400 399
-882 643 -1433 724 -189 27 -568 27 -753 -1z m596 -300 c408 -39 798 -192
1134 -442 122 -91 346 -315 437 -437 510 -684 596 -1577 224 -2335 -118 -240
-256 -429 -452 -621 -790 -769 -2013 -848 -2903 -186 -274 204 -512 492 -667
807 -417 849 -255 1866 405 2544 192 196 381 334 621 452 371 182 790 258
1201 218z"/>
<path d="M3780 3684 c-23 -9 -384 -363 -1032 -1012 l-998 -997 -277 277 c-240
239 -284 278 -320 288 -117 30 -223 -75 -193 -192 10 -38 55 -86 358 -390 297
-296 353 -348 390 -359 94 -27 22 -93 1195 1079 1133 1133 1108 1106 1093
1184 -10 54 -43 98 -89 118 -50 23 -80 24 -127 4z"/>
</g>
</svg>
